<svg xmlns="http://www.w3.org/2000/svg" width="24" height="24" viewBox="0 0 24 24"><path d="M10.918 13.933h.706v3.795h-.706v-.419c-.13.154-.266.272-.405.353-.381.218-.902.213-.902-.557v-3.172h.705v2.909c0 .153.037.256.188.256.138 0 .329-.176.415-.284v-2.881zm.642-4.181c.2 0 .311-.16.311-.377v-1.854c0-.223-.098-.38-.324-.38-.208 0-.309.161-.309.38v1.854c-.001.21.117.377.322.377zm-1.941 2.831h-2.439v.747h.823v4.398h.795v-4.398h.821v-.747zm4.721 2.253v2.105c0 .47-.176.834-.645.834-.259 0-.474-.094-.671-.34v.292h-.712v-5.145h.712v1.656c.16-.194.375-.354.628-.354.517.001.688.437.688.952zm-.727.043c0-.128-.024-.225-.075-.292-.086-.113-.244-.125-.367-.062l-.146.116v2.365l.167.134c.115.058.283.062.361-.039.04-.054.061-.141.061-.262v-1.96zm10.387-2.879c0 6.627-5.373 12-12 12s-12-5.373-12-12 5.373-12 12-12 12 5.373 12 12zm-10.746-2.251c0 .394.12.712.519.712.224 0 .534-.117.855-.498v.44h.741v-3.986h-.741v3.025c-.09.113-.291.299-.436.299-.159 0-.197-.108-.197-.269v-3.055h-.741v3.332zm-2.779-2.294v1.954c0 .703.367 1.068 1.085 1.068.597 0 1.065-.399 1.065-1.068v-1.954c0-.624-.465-1.071-1.065-1.071-.652 0-1.085.432-1.085 1.071zm-2.761-2.455l.993 3.211v2.191h.835v-2.191l.971-3.211h-.848l-.535 2.16-.575-2.16h-.841zm10.119 10.208c-.013-2.605-.204-3.602-1.848-3.714-1.518-.104-6.455-.103-7.971 0-1.642.112-1.835 1.104-1.848 3.714.013 2.606.204 3.602 1.848 3.715 1.516.103 6.453.103 7.971 0 1.643-.113 1.835-1.104 1.848-3.715zm-.885-.255v.966h-1.35v.716c0 .285.024.531.308.531.298 0 .315-.2.315-.531v-.264h.727v.285c0 .731-.313 1.174-1.057 1.174-.676 0-1.019-.491-1.019-1.174v-1.704c0-.659.435-1.116 1.071-1.116.678.001 1.005.431 1.005 1.117zm-.726-.007c0-.256-.054-.445-.309-.445-.261 0-.314.184-.314.445v.385h.623v-.385z"/></svg>