<svg id="Layer_1" data-name="Layer 1" xmlns="http://www.w3.org/2000/svg" viewBox="0 0 665.43 114.53"><defs><style>.cls-1{fill:none;stroke:#000;stroke-miterlimit:10;stroke-width:1.5px;}</style></defs><title>norman</title><path class="cls-1" d="M52.86,26.59C55,24.3,57.38,22,60.41,21.16c4-1.09,8.11.59,11.85,2.31,1.48.68,3.23,2.19,2.36,3.56-2.34-.21-4.31,1.93-5,4.18s-.56,4.66-1,7c-.9,5-4.41,9.42-4.88,14.52-.31,3.3.6,7-1.35,9.68-1.28-.65-1.51-2.51-.82-3.78a7.34,7.34,0,0,1,3.27-2.71c8.55-4.45,18.4-6.3,26.35-11.74a68.39,68.39,0,0,0,10.45-9.51l16-16.73-1,2.83A18.42,18.42,0,0,1,126.34,30a5,5,0,0,1,.6,2.37c-.13,2.13-2.39,3.35-4.2,4.49-9.24,5.81-11.87,17.88-18,26.88A75.37,75.37,0,0,1,94.57,74.94L74.23,94.64c-3.31,3.2-7.28,6.65-11.85,6.14a3.78,3.78,0,0,1-2.08-.78A15.87,15.87,0,0,1,59,98.35c-1.55-1.74-4.25-1.58-6.58-1.43a54.81,54.81,0,0,1-24.62-4.08c-1.36-.57-2.85-1.2-4.24-.72s-2.07,2.71-.76,3.38A52.1,52.1,0,0,1,32.88,80.42C37.17,76,42.53,71.78,43.74,65.7c-3.3-1.2-6.85.87-9.54,3.13C23.82,77.53,16.93,92.17,4.55,98.26c.69-4.75-.26-9.86.58-14.48.88-4.87,5.82-7.85,9.1-11.15C23.33,63.49,31,53.09,39,43,43.43,37.37,48,31.81,52.86,26.59Z" transform="translate(-3.28 -9.11)"/><path class="cls-1" d="M175.13,14c5.28-.81,10.61.58,15.93,1.07,13,1.21,26.94-2.71,38.6,3.09-8.52,8.36-14.42,18.95-21,28.93a238.61,238.61,0,0,1-34.78,41.7c-3.33,3.18-6.83,6.31-11,8.19-4.67,2.1-9.91,2.52-15,2.74a235.72,235.72,0,0,1-44.36-2.28c-1.68-.25-3.75-.36-4.72,1,1.52.73,3.38-.25,4.37-1.61a29,29,0,0,0,2.14-4.57c1.39-2.85,3.85-5,6.13-7.2C125,72.06,134,55.09,144.78,39.6a219.07,219.07,0,0,1,14.65-19C163.26,16.21,169.42,14.88,175.13,14Z" transform="translate(-3.28 -9.11)"/><path class="cls-1" d="M169.51,63.13a25.84,25.84,0,0,1-4.34,5.06,41.82,41.82,0,0,1-9,7.27c-3.41,1.84-7.52,2.73-11.22,1.56-1.24-1.48-.77-3.8.37-5.36s2.82-2.62,4.19-4c4.53-4.52,7.23-11,11.51-15.86,3.2-3.65,6.77-8,11-10.44C183.34,34.81,171.45,59.88,169.51,63.13Z" transform="translate(-3.28 -9.11)"/><path class="cls-1" d="M299.12,15.87a15.94,15.94,0,0,1,6,3.52,13.4,13.4,0,0,1,3.1,6.85,27.44,27.44,0,0,1-22.74,32.23c3.65-.34,7,2.82,7.77,6.4s-.48,7.34-2.42,10.46-4.52,5.77-6.75,8.68c-3.55,4.64-6.18,9.92-9.6,14.65a10.15,10.15,0,0,1-2.1,2.31,11.22,11.22,0,0,1-3.47,1.5l-12.71,3.88a83.94,83.94,0,0,1,9.62-21.82c.69-1.11,1.44-2.41,1-3.65a4.2,4.2,0,0,0-2.41-2.08,66.29,66.29,0,0,0-13.22-4.61,5.56,5.56,0,0,0-2.34-.19,5.82,5.82,0,0,0-2.58,1.59,79.93,79.93,0,0,0-7.88,7.73c-1.46,1.73-2.82,3.61-4.74,4.81A23.28,23.28,0,0,1,229,90c-4.34,1.53-8.35,4-12.74,5.33a28.5,28.5,0,0,1-18.85-.73l0,3.8c1.52-3,2.31-6.42,3.93-9.41A37.77,37.77,0,0,1,207,81.68l18.62-20.16c5.69-6.16,11.4-12.35,16-19.35,6.06-9.19,10.85-23.71,20.2-30.2,4.37-3,12-1.6,16.9-1A82.52,82.52,0,0,1,299.12,15.87Z" transform="translate(-3.28 -9.11)"/><path class="cls-1" d="M351.42,31.54c-9.6,11.57-14.78,26.29-24.33,37.9-4.21,5.12-9.2,9.54-13.66,14.45-.81.89-1.65,1.95-1.51,3.14s1.18,2,2,2.89a8.52,8.52,0,0,1,.45,10.47,26.4,26.4,0,0,1,14.31-6.56c3.84-.48,8.83-.86,9.87-4.59.45-1.59-.08-3.3.17-4.93a5.59,5.59,0,0,1,5.61-4.55,5.89,5.89,0,0,1,5.36,4.94c.17,1.2,0,2.42,0,3.63.35,5.55,6.13,8.9,11.18,11.23,3.15,1.46,6.66,2.95,10,1.94a13.17,13.17,0,0,0,4.82-3.14,78.82,78.82,0,0,0,12.93-15.13c2-3,4.43-6.54,8-6.41,1.86,5-1,10.54-4.25,14.86s-7,8.78-7.16,14.15a24.14,24.14,0,0,1,23.22,7.39,3,3,0,0,0,1.33,1.05c.93.25,1.82-.48,2.49-1.17,10.89-11.27,16.54-26.49,21.63-41.31a57,57,0,0,1,4.4-10.51c2.58-4.38,6.49-8.48,6.43-13.56-.05-4.5-3.25-8.28-6.28-11.61A10.46,10.46,0,0,0,434.61,33a14.19,14.19,0,0,0-4.44-.48c-4-.16-8.07-1.54-12-.58-3.5.86-6.26,3.47-9.23,5.5-8.08,5.54-18.72,7.42-25.18,14.79-3.48,4-5.94,9.64-11.08,10.9a63.08,63.08,0,0,0,4.74-13.28c1.32-5.63,1.27-12.75-3.66-15.78a11.48,11.48,0,0,0-5.23-1.47c-6.11-.43-12.07,1.75-17.73,4.08" transform="translate(-3.28 -9.11)"/><path class="cls-1" d="M493.16,34.05A435.09,435.09,0,0,0,469.7,85.51c-2.3,6.06-4.51,12.26-8.32,17.51-1.91,2.64-4.44,5.13-7.64,5.71a134.33,134.33,0,0,1,28.49-1.61,2.16,2.16,0,0,0,1.68-.39,2.29,2.29,0,0,0,.46-1.46c.94-10.22,11.52-16.7,15.58-26.13l12.54,10a2,2,0,0,1,.81,1,2,2,0,0,1-.24,1.23c-3.22,7.42-8,14.59-8,22.68l10.31-4.48c2.71-1.18,5.5-2.38,8.45-2.54s6.16.91,7.75,3.4A521.44,521.44,0,0,0,552.3,56.56c1.55-4.72,3-9.93,1.19-14.55-1.48-3.73-4.91-6.47-6.17-10.28-.94-2.84-.67-6.23-2.68-8.44a7.29,7.29,0,0,0-6.37-1.88,32.73,32.73,0,0,0-6.58,2C519.07,27.95,499.5,22.24,493.16,34.05Z" transform="translate(-3.28 -9.11)"/><path class="cls-1" d="M522.39,64.68c-3.52,1.9-7.67,2.18-11.67,2.19a14.18,14.18,0,0,1-5.34-.72,10.81,10.81,0,0,1-5.24-4.83c-1.67-3.49.05-4.52,2.47-7.36,2.79-3.28,6.18-8.8,10.65-9.94C523.94,41.28,533.76,58.53,522.39,64.68Z" transform="translate(-3.28 -9.11)"/><path class="cls-1" d="M582.41,52.66a44.82,44.82,0,0,1-4.48,7.74c-1.71,2.21-3.83,4.09-5.51,6.32-2.63,3.48-4.13,7.66-5.59,11.77-4.46,12.59-9,25.62-8.05,38.95,1.69-2.61,5-3.58,8.15-3.81s6.29.07,9.26-.86a21,21,0,0,0,6.22-3.59c4.45-3.38,9-7.85,9-13.44a96.28,96.28,0,0,0,14.39,26,2.09,2.09,0,0,0,1,.82c.64.19,1.28-.26,1.83-.63a11.84,11.84,0,0,1,9-1.73c3.31.71,6.43,2.86,9.77,2.36,4.79-.72,7-6.19,8.56-10.79A179.79,179.79,0,0,1,655.2,71.41c5.14-8,11.08-16,12.4-25.38a133.6,133.6,0,0,1-17.38-6.57c2.18,4.3-.86,9.31-3.76,13.16-9,11.93-18,23.89-28,35a92.35,92.35,0,0,0-1.13-29.46c-1-4.71-2.27-9.53-1.34-14.25,1.11-5.59,5.76-10.64,5.29-16.5-7.8,5.45-15.65-2.66-23.66.69S585.93,45.52,582.41,52.66Z" transform="translate(-3.28 -9.11)"/><path class="cls-1" d="M282.55,26.37A4.66,4.66,0,0,1,281.12,31a13.71,13.71,0,0,1-4.38,2.54l-8.42,3.57a6.25,6.25,0,0,1-2,.6,2.12,2.12,0,0,1-1.89-.8c-2.19-3.23,2.61-10.95,5.25-12.94C273.4,21.09,279.27,24,282.55,26.37Z" transform="translate(-3.28 -9.11)"/></svg>
