<svg id="Layer_1" data-name="Layer 1" xmlns="http://www.w3.org/2000/svg" viewBox="0 0 480.07 121.82"><title>this-is-made-with</title><path d="M829,419.43A13.45,13.45,0,1,1,815.54,406,13.24,13.24,0,0,1,829,419.43m-5.89,0c0-4.82-3.5-8.12-7.57-8.12s-7.56,3.3-7.56,8.12,3.5,8.12,7.56,8.12,7.57-3.35,7.57-8.12" transform="translate(-443.25 -323.04)"/><path d="M858.23,419.43A13.45,13.45,0,1,1,844.78,406a13.24,13.24,0,0,1,13.45,13.4m-5.89,0c0-4.82-3.5-8.12-7.57-8.12s-7.56,3.3-7.56,8.12,3.5,8.12,7.56,8.12,7.57-3.35,7.57-8.12" transform="translate(-443.25 -323.04)"/><path d="M886.3,406.86v24c0,9.9-5.84,14-12.74,14a12.77,12.77,0,0,1-11.88-7.92l5.13-2.13a7.42,7.42,0,0,0,6.75,4.77c4.42,0,7.16-2.74,7.16-7.87v-1.93h-.2a9.14,9.14,0,0,1-7.06,3c-6.7,0-12.85-5.84-12.85-13.35S866.76,406,873.46,406a9.29,9.29,0,0,1,7.06,3h.2v-2.16Zm-5.18,12.62c0-4.72-3.15-8.17-7.16-8.17s-7.46,3.45-7.46,8.17,3.4,8.07,7.46,8.07,7.16-3.4,7.16-8.07" transform="translate(-443.25 -323.04)"/><rect x="446.98" y="69.58" width="5.89" height="39.4"/><path d="M918.49,423.84l4.57,3a13.33,13.33,0,0,1-11.17,5.94c-7.61,0-13.14-5.89-13.14-13.4,0-8,5.58-13.4,12.48-13.4s10.36,5.53,11.47,8.53l.61,1.52-17.92,7.41a6.82,6.82,0,0,0,6.5,4.06,7.65,7.65,0,0,0,6.6-3.71M904.43,419l12-5a5.19,5.19,0,0,0-5-2.84,7.35,7.35,0,0,0-7,7.82" transform="translate(-443.25 -323.04)"/><path d="M780.8,432.83a20.82,20.82,0,1,1,0-41.63,19.83,19.83,0,0,1,14.27,5.74l-4,4a14.5,14.5,0,0,0-10.25-4.06,15.13,15.13,0,0,0,0,30.26A13.93,13.93,0,0,0,791.31,423a11.86,11.86,0,0,0,3.1-7.16H780.8v-5.69h19.14a18.56,18.56,0,0,1,.3,3.55c0,4.26-1.17,9.55-4.92,13.3s-8.33,5.84-14.52,5.84" transform="translate(-443.25 -323.04)"/><rect x="259.98" width="0.99" height="110.17"/><path d="M762.36,326h2.06l2.67,7.39,1,2.81h.08l1-2.81,2.65-7.39h2.06v13.77h-1.66v-7.58c0-1.22.13-2.86.23-4.07h-.08l-1.11,3.07-2.65,7.2h-1l-2.67-7.2-1.09-3.07h-.08c.08,1.22.23,2.86.23,4.07v7.58h-1.62Z" transform="translate(-443.25 -323.04)"/><path d="M783.24,333.35c0-1.3-.44-2.56-2.1-2.56a5.49,5.49,0,0,0-3,1.09l-.69-1.2a7.57,7.57,0,0,1,4-1.32c2.5,0,3.55,1.66,3.55,4.2v6.26h-1.43l-.15-1.22h0a5.54,5.54,0,0,1-3.38,1.47,2.78,2.78,0,0,1-3-2.9C777,334.94,778.89,333.83,783.24,333.35Zm-2.79,5.33a4.18,4.18,0,0,0,2.79-1.36v-2.83c-3.42.42-4.58,1.26-4.58,2.56A1.56,1.56,0,0,0,780.44,338.68Z" transform="translate(-443.25 -323.04)"/><path d="M791.91,329.36a4.2,4.2,0,0,1,2.86,1.18l-.08-1.74v-3.93h1.74v14.95H795l-.15-1.2h-.06a4.6,4.6,0,0,1-3.09,1.45c-2.56,0-4.22-1.93-4.22-5.33S789.58,329.36,791.91,329.36Zm.17,9.26a3.45,3.45,0,0,0,2.6-1.41v-5.33a3.55,3.55,0,0,0-2.48-1.07c-1.64,0-2.94,1.57-2.94,3.91S790.29,338.62,792.08,338.62Z" transform="translate(-443.25 -323.04)"/><path d="M803.69,329.36c2.6,0,4.07,1.87,4.07,4.79a6.08,6.08,0,0,1-.06.94h-6.89c.13,2.2,1.45,3.59,3.4,3.59a4.61,4.61,0,0,0,2.54-.8l.61,1.13a6.08,6.08,0,0,1-3.36,1c-2.73,0-4.89-2-4.89-5.33S801.36,329.36,803.69,329.36Zm2.56,4.6c0-2.08-.92-3.23-2.52-3.23-1.43,0-2.73,1.18-2.94,3.23Z" transform="translate(-443.25 -323.04)"/><path d="M813.31,329.61h1.76l1.51,5.9c.23,1,.42,1.89.61,2.83h.08c.23-.94.44-1.89.69-2.83l1.57-5.9h1.68l1.6,5.9c.25,1,.48,1.89.71,2.83h.08c.23-.94.42-1.87.63-2.83l1.49-5.9h1.64l-2.73,10.2h-2.1l-1.47-5.48c-.25-1-.44-1.91-.69-2.94h-.08c-.23,1-.44,2-.71,3l-1.43,5.46h-2Z" transform="translate(-443.25 -323.04)"/><path d="M829.29,326.4a1.2,1.2,0,0,1,2.39,0,1.2,1.2,0,0,1-2.39,0Zm.31,3.21h1.72v10.2H829.6Z" transform="translate(-443.25 -323.04)"/><path d="M835.06,331h-1.51v-1.3l1.6-.1.21-2.86h1.45v2.86h2.75V331h-2.75v5.67c0,1.26.4,2,1.57,2a3.71,3.71,0,0,0,1.15-.27l.34,1.3a6.3,6.3,0,0,1-1.89.38c-2.18,0-2.92-1.39-2.92-3.4Z" transform="translate(-443.25 -323.04)"/><path d="M841.87,324.87h1.72v4.07l-.06,2.1a4.88,4.88,0,0,1,3.4-1.68c2.14,0,3.11,1.39,3.11,4v6.47h-1.72v-6.24c0-1.91-.59-2.73-1.93-2.73-1,0-1.76.55-2.79,1.57v7.39h-1.72Z" transform="translate(-443.25 -323.04)"/><path d="M761.92,363.1a4.59,4.59,0,0,0,3,1.22c1.34,0,2-.71,2-1.6,0-1-1.22-1.51-2.33-1.93-1.45-.52-3-1.22-3-2.94s1.3-2.9,3.51-2.9a5.09,5.09,0,0,1,3.17,1.15l-.82,1.09a3.79,3.79,0,0,0-2.33-.9c-1.28,0-1.87.69-1.87,1.47,0,1,1.11,1.32,2.27,1.76,1.47.55,3.11,1.15,3.11,3.09,0,1.66-1.32,3-3.74,3a6.14,6.14,0,0,1-3.8-1.41Z" transform="translate(-443.25 -323.04)"/><path d="M775,355c2.5,0,4.72,2,4.72,5.38s-2.23,5.33-4.72,5.33-4.72-2-4.72-5.33S772.46,355,775,355Zm0,9.28c1.76,0,2.94-1.57,2.94-3.91s-1.18-3.95-2.94-3.95S772,358,772,360.33,773.22,364.24,775,364.24Z" transform="translate(-443.25 -323.04)"/><path d="M782.38,355.21h1.43l.15,1.47H784a4.48,4.48,0,0,1,3.17-1.72,2.68,2.68,0,0,1,2.81,2c1.07-1.15,2.12-2,3.36-2,2.1,0,3.11,1.39,3.11,4v6.47h-1.72v-6.24c0-1.91-.61-2.73-1.89-2.73a3.74,3.74,0,0,0-2.56,1.57v7.39h-1.72v-6.24c0-1.91-.61-2.73-1.91-2.73A3.83,3.83,0,0,0,784.1,358v7.39h-1.72Z" transform="translate(-443.25 -323.04)"/><path d="M803.61,355c2.6,0,4.07,1.87,4.07,4.79a6.08,6.08,0,0,1-.06.94h-6.89c.13,2.2,1.45,3.59,3.4,3.59a4.61,4.61,0,0,0,2.54-.8l.61,1.13a6.08,6.08,0,0,1-3.36,1c-2.73,0-4.89-2-4.89-5.33S801.27,355,803.61,355Zm2.56,4.6c0-2.08-.92-3.23-2.52-3.23-1.43,0-2.73,1.18-2.94,3.23Z" transform="translate(-443.25 -323.04)"/><path d="M819,351.87a2.87,2.87,0,0,0-1.15-.25c-1,0-1.43.67-1.43,2v1.62h2.16v1.41h-2.16v8.8h-1.72v-8.8h-1.39v-1.3l1.39-.1v-1.62c0-2.08.94-3.38,3-3.38a4.62,4.62,0,0,1,1.7.34Z" transform="translate(-443.25 -323.04)"/><path d="M820.57,355.21H822l.15,1.85h.06a3.49,3.49,0,0,1,2.9-2.1,2.53,2.53,0,0,1,1.09.21l-.34,1.51a2.86,2.86,0,0,0-1-.17c-.86,0-1.89.63-2.58,2.35v6.55h-1.72Z" transform="translate(-443.25 -323.04)"/><path d="M827.55,352a1.2,1.2,0,0,1,2.39,0,1.2,1.2,0,0,1-2.39,0Zm.31,3.21h1.72v10.2h-1.72Z" transform="translate(-443.25 -323.04)"/><path d="M836.85,355c2.6,0,4.07,1.87,4.07,4.79a6.08,6.08,0,0,1-.06.94H834c.13,2.2,1.45,3.59,3.4,3.59a4.61,4.61,0,0,0,2.54-.8l.61,1.13a6.08,6.08,0,0,1-3.36,1c-2.73,0-4.89-2-4.89-5.33S834.52,355,836.85,355Zm2.56,4.6c0-2.08-.92-3.23-2.52-3.23-1.43,0-2.73,1.18-2.94,3.23Z" transform="translate(-443.25 -323.04)"/><path d="M843.44,355.21h1.43l.15,1.47h.06A4.81,4.81,0,0,1,848.5,355c2.14,0,3.11,1.39,3.11,4v6.47h-1.72v-6.24c0-1.91-.59-2.73-1.93-2.73-1,0-1.76.55-2.79,1.57v7.39h-1.72Z" transform="translate(-443.25 -323.04)"/><path d="M858.62,355a4.2,4.2,0,0,1,2.86,1.18l-.08-1.74v-3.93h1.74v14.95h-1.43l-.15-1.2h-.06a4.6,4.6,0,0,1-3.09,1.45c-2.56,0-4.22-1.93-4.22-5.33S856.29,355,858.62,355Zm.17,9.26a3.45,3.45,0,0,0,2.6-1.41v-5.33a3.55,3.55,0,0,0-2.48-1.07c-1.64,0-2.94,1.57-2.94,3.91S857,364.22,858.79,364.22Z" transform="translate(-443.25 -323.04)"/><path d="M866.31,363.1a4.59,4.59,0,0,0,3,1.22c1.34,0,2-.71,2-1.6,0-1-1.22-1.51-2.33-1.93-1.45-.52-3-1.22-3-2.94s1.3-2.9,3.51-2.9a5.09,5.09,0,0,1,3.17,1.15l-.82,1.09a3.79,3.79,0,0,0-2.33-.9c-1.28,0-1.87.69-1.87,1.47,0,1,1.11,1.32,2.27,1.76,1.47.55,3.11,1.15,3.11,3.09,0,1.66-1.32,3-3.74,3a6.14,6.14,0,0,1-3.8-1.41Z" transform="translate(-443.25 -323.04)"/><path d="M884.22,351.87a2.87,2.87,0,0,0-1.15-.25c-1,0-1.43.67-1.43,2v1.62h2.16v1.41h-2.16v8.8h-1.72v-8.8h-1.39v-1.3l1.39-.1v-1.62c0-2.08.94-3.38,3-3.38a4.62,4.62,0,0,1,1.7.34Z" transform="translate(-443.25 -323.04)"/><path d="M885.76,355.21h1.43l.15,1.85h.06a3.49,3.49,0,0,1,2.9-2.1,2.53,2.53,0,0,1,1.09.21l-.34,1.51a2.86,2.86,0,0,0-1-.17c-.86,0-1.89.63-2.58,2.35v6.55h-1.72Z" transform="translate(-443.25 -323.04)"/><path d="M896.8,355c2.5,0,4.72,2,4.72,5.38s-2.23,5.33-4.72,5.33-4.72-2-4.72-5.33S894.3,355,896.8,355Zm0,9.28c1.76,0,2.94-1.57,2.94-3.91s-1.18-3.95-2.94-3.95-2.94,1.6-2.94,3.95S895.06,364.24,896.8,364.24Z" transform="translate(-443.25 -323.04)"/><path d="M904.21,355.21h1.43l.15,1.47h.06A4.48,4.48,0,0,1,909,355a2.68,2.68,0,0,1,2.81,2c1.07-1.15,2.12-2,3.36-2,2.1,0,3.11,1.39,3.11,4v6.47h-1.72v-6.24c0-1.91-.61-2.73-1.89-2.73a3.74,3.74,0,0,0-2.56,1.57v7.39h-1.72v-6.24c0-1.91-.61-2.73-1.91-2.73a3.83,3.83,0,0,0-2.56,1.57v7.39h-1.72Z" transform="translate(-443.25 -323.04)"/><path d="M447.4,327.51h-4.16V326h10.08v1.47h-4.16v12.3H447.4Z" transform="translate(-443.25 -323.04)"/><path d="M455.64,324.87h1.72v4.07l-.06,2.1a4.88,4.88,0,0,1,3.4-1.68c2.14,0,3.11,1.39,3.11,4v6.47h-1.72v-6.24c0-1.91-.59-2.73-1.93-2.73-1,0-1.76.55-2.79,1.57v7.39h-1.72Z" transform="translate(-443.25 -323.04)"/><path d="M466.74,326.4a1.2,1.2,0,0,1,2.39,0,1.2,1.2,0,0,1-2.39,0Zm.31,3.21h1.72v10.2h-1.72Z" transform="translate(-443.25 -323.04)"/><path d="M472,337.5a4.59,4.59,0,0,0,3,1.22c1.34,0,2-.71,2-1.6,0-1-1.22-1.51-2.33-1.93-1.45-.52-3-1.22-3-2.94s1.3-2.9,3.51-2.9a5.09,5.09,0,0,1,3.17,1.15l-.82,1.09a3.79,3.79,0,0,0-2.33-.9c-1.28,0-1.87.69-1.87,1.47,0,1,1.11,1.32,2.27,1.76,1.47.55,3.11,1.15,3.11,3.09,0,1.66-1.32,3-3.74,3a6.14,6.14,0,0,1-3.8-1.41Z" transform="translate(-443.25 -323.04)"/><path d="M485,326.4a1.2,1.2,0,0,1,2.39,0,1.2,1.2,0,0,1-2.39,0Zm.31,3.21H487v10.2h-1.72Z" transform="translate(-443.25 -323.04)"/><path d="M490.16,337.5a4.59,4.59,0,0,0,3,1.22c1.34,0,2-.71,2-1.6,0-1-1.22-1.51-2.33-1.93-1.45-.52-3-1.22-3-2.94s1.3-2.9,3.51-2.9a5.09,5.09,0,0,1,3.17,1.15l-.82,1.09a3.79,3.79,0,0,0-2.33-.9c-1.28,0-1.87.69-1.87,1.47,0,1,1.11,1.32,2.27,1.76,1.47.55,3.11,1.15,3.11,3.09,0,1.66-1.32,3-3.74,3a6.14,6.14,0,0,1-3.8-1.41Z" transform="translate(-443.25 -323.04)"/><path d="M509.25,333.35c0-1.3-.44-2.56-2.1-2.56a5.49,5.49,0,0,0-3,1.09l-.69-1.2a7.57,7.57,0,0,1,4-1.32c2.5,0,3.55,1.66,3.55,4.2v6.26h-1.43l-.15-1.22h0a5.54,5.54,0,0,1-3.38,1.47,2.78,2.78,0,0,1-3-2.9C503,334.94,504.9,333.83,509.25,333.35Zm-2.79,5.33a4.18,4.18,0,0,0,2.79-1.36v-2.83c-3.42.42-4.58,1.26-4.58,2.56A1.56,1.56,0,0,0,506.45,338.68Z" transform="translate(-443.25 -323.04)"/><path d="M445,402.58h16.24v1.8H447.09v11.2H459v1.8H447.09v13h14.62v1.8H445Z" transform="translate(-443.25 -323.04)"/><path d="M472.7,420.94l-6.75-10.3h2.21l3.51,5.49c.72,1.17,1.48,2.38,2.29,3.55h.18c.76-1.17,1.44-2.38,2.2-3.55l3.38-5.49h2.07l-6.7,10.48,7.33,11.11h-2.2l-3.83-5.89c-.81-1.35-1.66-2.7-2.56-4h-.18c-.85,1.26-1.62,2.61-2.48,4l-3.69,5.89h-2.12Z" transform="translate(-443.25 -323.04)"/><path d="M489.17,434.12V442h-2V410.64h1.71l.18,2.7h.13c2.12-1.66,4.68-3.24,7.33-3.24,5.76,0,8.64,4.32,8.64,11,0,7.33-4.46,11.65-9.54,11.65-2,0-4.23-1-6.48-2.65Zm6.39-3.1c4.37,0,7.52-4,7.52-9.9,0-5.31-1.89-9.27-6.84-9.27-2.16,0-4.46,1.26-7.06,3.56v12.82C491.64,430.25,493.89,431,495.56,431Z" transform="translate(-443.25 -323.04)"/><path d="M519.27,410.1c5.13,0,8.28,3.65,8.28,10a9.74,9.74,0,0,1-.09,1.62H511.89c.09,5.44,3.29,9.36,8.14,9.36a9.57,9.57,0,0,0,5.81-1.94l.81,1.53a12,12,0,0,1-6.79,2.11c-5.53,0-10-4.23-10-11.29S514.46,410.1,519.27,410.1Zm6.39,10.08c0-5.53-2.48-8.37-6.34-8.37-3.69,0-7,3.19-7.42,8.37Z" transform="translate(-443.25 -323.04)"/><path d="M533.4,410.64h1.71l.18,4h.13c1.44-2.65,3.56-4.54,6.12-4.54a4.44,4.44,0,0,1,2.16.45l-.45,1.8a4.71,4.71,0,0,0-2-.36c-1.94,0-4.23,1.48-5.9,5.53v14.71h-2Z" transform="translate(-443.25 -323.04)"/><path d="M546.9,403.66a1.8,1.8,0,1,1,1.8,1.75A1.72,1.72,0,0,1,546.9,403.66Zm.76,7h2v21.6h-2Z" transform="translate(-443.25 -323.04)"/><path d="M558,410.64h1.71l.18,3.33H560c1.94-2.21,4.41-3.87,6.79-3.87,3.46,0,5.22,1.75,6,4.41,2.47-2.7,4.86-4.41,7.33-4.41,4.32,0,6.48,2.7,6.48,8.28v13.86h-2V418.64c0-4.59-1.53-6.75-4.81-6.75-2,0-4.09,1.35-6.48,4v16.29h-2V418.64c0-4.59-1.53-6.75-4.86-6.75q-2.9,0-6.48,4v16.29h-2Z" transform="translate(-443.25 -323.04)"/><path d="M602.12,410.1c5.13,0,8.28,3.65,8.28,10a9.74,9.74,0,0,1-.09,1.62H594.74c.09,5.44,3.29,9.36,8.14,9.36a9.57,9.57,0,0,0,5.81-1.94l.81,1.53a12,12,0,0,1-6.79,2.11c-5.53,0-10-4.23-10-11.29S597.3,410.1,602.12,410.1Zm6.39,10.08c0-5.53-2.48-8.37-6.34-8.37-3.69,0-7,3.19-7.42,8.37Z" transform="translate(-443.25 -323.04)"/><path d="M616.24,410.64H618l.18,3.33h.13c2.21-2.21,4.46-3.87,7.42-3.87,4.46,0,6.52,2.7,6.52,8.28v13.86h-2V418.64c0-4.59-1.44-6.75-4.95-6.75-2.56,0-4.41,1.35-7.06,4v16.29h-2Z" transform="translate(-443.25 -323.04)"/><path d="M640.68,412.35H637.3v-1.53l3.42-.18.27-6.25h1.71v6.25H649v1.71H642.7v14.08c0,2.74.67,4.59,3.65,4.59a7.23,7.23,0,0,0,2.7-.68l.54,1.62a12.05,12.05,0,0,1-3.51.81c-4.19,0-5.4-2.65-5.4-6.52Z" transform="translate(-443.25 -323.04)"/><path d="M443.58,360.15h2.2l3.69,17.46c.72,3.24,1.4,6.48,2.07,9.67h.18c.67-3.19,1.48-6.43,2.25-9.67l4.68-17.46h2.07l4.68,17.46c.76,3.24,1.57,6.43,2.34,9.67h.18c.68-3.24,1.31-6.43,2-9.67l3.69-17.46h2.07L469,389.81h-2.29l-5.4-20.34c-.54-2.34-1-4.36-1.57-6.7h-.18c-.5,2.34-1.08,4.36-1.62,6.7l-5.31,20.34h-2.29Z" transform="translate(-443.25 -323.04)"/><path d="M488.58,367.67c5.13,0,8.28,3.65,8.28,10a9.74,9.74,0,0,1-.09,1.62H481.2c.09,5.44,3.29,9.36,8.14,9.36a9.57,9.57,0,0,0,5.81-1.94l.81,1.53a12,12,0,0,1-6.79,2.11c-5.53,0-10-4.23-10-11.29S483.76,367.67,488.58,367.67ZM495,377.75c0-5.53-2.48-8.37-6.34-8.37-3.69,0-7,3.19-7.42,8.37Z" transform="translate(-443.25 -323.04)"/><path d="M502.71,357.45h2v9.36L504.6,371c2.21-1.85,4.81-3.37,7.47-3.37,5.76,0,8.64,4.32,8.64,11,0,7.33-4.46,11.65-9.54,11.65a11.18,11.18,0,0,1-6.48-2.56h-.09l-.23,2h-1.67Zm8.37,31.14c4.37,0,7.52-4,7.52-9.9,0-5.31-1.89-9.27-6.84-9.27-2.16,0-4.5,1.26-7.06,3.56V385.8A10.39,10.39,0,0,0,511.08,388.59Z" transform="translate(-443.25 -323.04)"/><path d="M523.28,360.15h2.21L531,377.48c1.13,3.6,1.89,6.34,3.1,9.94h.18c1.21-3.6,2-6.34,3.15-9.94l5.49-17.32H545l-9.67,29.65H533Z" transform="translate(-443.25 -323.04)"/><path d="M565.63,389.81l-8-13.63h-6.3v13.63h-2.07V360.15h8.46c5.9,0,9.76,2.16,9.76,7.83,0,4.73-3,7.42-7.6,8.05L568,389.81Zm-8.46-15.34c5.26,0,8.14-2.12,8.14-6.48s-2.88-6.07-8.14-6.07h-5.85v12.55Z" transform="translate(-443.25 -323.04)"/></svg>